<svg id="图层_1" data-name="图层 1" xmlns="http://www.w3.org/2000/svg" xmlns:xlink="http://www.w3.org/1999/xlink" viewBox="0 0 319.87 114.5"><defs><style>.cls-1{fill:#fff;stroke:#dde6eb;stroke-miterlimit:10;}.cls-2{fill:#fdb24f;}.cls-3{fill:#feb53d;}.cls-4{fill:url(#未命名的渐变_11);}.cls-5{fill:#28409c;}.cls-6{fill:#34495e;}.cls-7{fill:#111f2a;}</style><linearGradient id="未命名的渐变_11" x1="-146.48" y1="-2.09" x2="-40.26" y2="-2.09" gradientTransform="translate(-27.62 62.48) rotate(45)" gradientUnits="userSpaceOnUse"><stop offset="0" stop-color="#172a72"/><stop offset="1" stop-color="#24409e"/></linearGradient></defs><title>中文标</title><path class="cls-1" d="M141.08,48.63H-85.42l52-102.25H141.08c4.69,0,8.5,4.2,8.5,9.37V39.26C149.58,44.43,145.77,48.63,141.08,48.63Z" transform="translate(169.79 59.34)"/><path class="cls-2" d="M-118.31-24.13H-.47a0,0,0,0,1,0,0V0a20,20,0,0,1-20,20h-97.86a0,0,0,0,1,0,0V-24.13A0,0,0,0,1-118.31-24.13Z" transform="translate(153.88 16.74) rotate(-45)"/><path class="cls-3" d="M-145.63-13.85h88.75a0,0,0,0,1,0,0V30.23a0,0,0,0,1,0,0h-68.77a20,20,0,0,1-20-20v-24.1A0,0,0,0,1-145.63-13.85Z" transform="translate(145.93 133.34) rotate(45)"/><path class="cls-4" d="M-148.15-24.13H-30.31a0,0,0,0,1,0,0V0a20,20,0,0,1-20,20h-97.86a0,0,0,0,1,0,0V-24.13A0,0,0,0,1-148.15-24.13Z" transform="translate(145.13 -4.37) rotate(-45)"/><path class="cls-5" d="M-175.48-13.85h88.75a0,0,0,0,1,0,0V30.23a0,0,0,0,1,0,0H-155.5a20,20,0,0,1-20-20v-24.1a0,0,0,0,1,0,0Z" transform="translate(137.18 154.45) rotate(45)"/><path class="cls-6" d="M47.67,21.38a17.07,17.07,0,0,1-3.59,5.83,68.57,68.57,0,0,1,8.27,4.08l-2.08,2.16A57.67,57.67,0,0,0,41.9,29.1c-2.9,2.16-6.6,3.51-11.06,4.38a11.41,11.41,0,0,0-1.53-2.33,26.6,26.6,0,0,0,9.86-3.23c-2.33-.93-4.74-1.83-6.9-2.52l0,0a45.72,45.72,0,0,0,2.74-4H29V19h7.42a39.69,39.69,0,0,0,2-4.27l2.79.58c-.49,1.18-1.12,2.46-1.75,3.7H52.77v2.41ZM32.23,17.19H29.66V11.44H39.4c-.36-.79-.77-1.72-1.15-2.49l2.63-.63c.55,1,1.15,2.19,1.56,3.12h9.67v5.75H49.4V13.82H32.23Zm5.91,4.19c-.63,1-1.23,2-1.83,2.9,1.67.55,3.45,1.21,5.2,1.89a13.13,13.13,0,0,0,3.23-4.79Z" transform="translate(169.79 59.34)"/><path class="cls-6" d="M69.57,20.56v3.81H76.5v2.22H69.57v4H79.9v2.27H56.73V30.56H66.89v-4H60.26V24.37h6.63V20.56H60V18.81c-1,.57-2,1.15-3,1.62a9.46,9.46,0,0,0-1.75-2.08c4.93-2.14,9.89-5.94,12.6-10.21L70.15,9.2l-.49.71A36.41,36.41,0,0,0,81.27,18.4a7.36,7.36,0,0,0-1.72,2.16c-1-.57-2-1.15-2.93-1.72v1.72Zm6.27-2.25a40.57,40.57,0,0,1-7.64-6.54,35,35,0,0,1-7.48,6.54Z" transform="translate(169.79 59.34)"/><path class="cls-6" d="M90.1,27.3c-2.38.63-4.85,1.26-6.85,1.78L82.77,27c1.86-.38,4.49-1,7.15-1.67ZM92.18,9.55c-.25,3.67-.57,8.46-.93,11.47h2.14s0,.66,0,1c-.41,6.85-.77,9.45-1.62,10.35a2.45,2.45,0,0,1-1.86.9,26.73,26.73,0,0,1-3.29,0,5,5,0,0,0-.66-2.08c1.29.11,2.46.14,3,.14s.71,0,1-.33c.52-.55.88-2.66,1.2-7.89H83.92c.33-2.41.63-6.43.79-9.42l2.16.11c-.14,2.3-.36,5.09-.57,7.31h2.82c.3-2.52.63-6.13.82-9.34H83.59V9.55Zm12.35,7.2a38.53,38.53,0,0,1-4.24-4.52,27.4,27.4,0,0,1-6.76,6.87,14.7,14.7,0,0,0-1.48-2A21.72,21.72,0,0,0,100,8.18l2.19.74a13.73,13.73,0,0,1-.63,1.26,26.53,26.53,0,0,0,7,6.41A11.21,11.21,0,0,0,107.36,19c-.88-.63-1.78-1.34-2.68-2.14v2H96.46V16.75Zm3.18,4.68A89.8,89.8,0,0,1,104,30.06h3.75v2.19H93.86V30.06h8.05a59.36,59.36,0,0,0,3.51-9.17ZM96.26,28.09a39.34,39.34,0,0,0-1.62-6.49l1.94-.49a36.36,36.36,0,0,1,1.75,6.41Zm4.19-.74a50.86,50.86,0,0,0-1-6.46l1.94-.27A44,44,0,0,1,102.54,27Z" transform="translate(169.79 59.34)"/><path class="cls-6" d="M119.21,25.49a13.1,13.1,0,0,0,1,2.25c-4.74,3.89-5.53,4.55-6,5.18a7.82,7.82,0,0,0-1.59-1.7,4.34,4.34,0,0,0,1.62-3.2V19.27h-3.56V16.84h6V27.52Zm-3-10.71A32.26,32.26,0,0,0,112,10.54L113.65,9A37,37,0,0,1,118,13Zm19.36,15.31v2.38H119V30.09h2.19V17.38h2.52V30.09h3.2V12.7h-7.09V10.32H135V12.7h-5.5v6.68h5v2.36h-5v8.35Z" transform="translate(169.79 59.34)"/><path class="cls-7" d="M49.06-27h7.38v3.26h.1a7.3,7.3,0,0,1,6.89-3.85h0a2.45,2.45,0,0,1,2.44,2.43v4.56a11.37,11.37,0,0,0-3.15-.49c-5.61,0-6.3,3.25-6.3,8v10H49.06Z" transform="translate(169.79 59.34)"/><path class="cls-7" d="M92.13-3.08H85V-6.32h-.1a7.76,7.76,0,0,1-7,3.84c-7.48,0-8.86-4.92-8.86-11.32V-27H74a2.47,2.47,0,0,1,2.47,2.46v9.26c0,2.76,0,6.3,3.84,6.3s4.43-3,4.43-6.1V-27h4.91a2.47,2.47,0,0,1,2.47,2.46Z" transform="translate(169.79 59.34)"/><path class="cls-7" d="M111.89-21.64a2.67,2.67,0,0,1-3.23.36,5.42,5.42,0,0,0-2.75-.69c-1.23,0-2.71.54-2.71,2,0,3.54,12.45.54,12.45,9.65,0,6.1-5.91,7.87-11,7.87-3.35,0-7-.84-9.4-3.25l2.72-3a2.61,2.61,0,0,1,3.41-.41,6.12,6.12,0,0,0,3.57,1.06c1.67,0,3.35-.44,3.35-1.72,0-3.84-12.45-.59-12.45-9.7,0-5.61,5-8.07,10-8.07,3.15,0,6.64.79,8.86,3.15Z" transform="translate(169.79 59.34)"/><path class="cls-7" d="M48.17-37.92H23.08v6.79H38.95l-5.93,3V-3.08H40.7V-31.13h9.94v-4.33A2.47,2.47,0,0,0,48.17-37.92Z" transform="translate(169.79 59.34)"/><path class="cls-7" d="M132.48-8.69c-3.2,0-3.49-1.87-3.5-4.43v-8h6.5v-3.45A2.47,2.47,0,0,0,133-27h-4v-7.09H121.6V-27h-4.72v5.91h10.65l-5.93,3v8.41c0,5.22,3.79,7.23,8.71,7.23h5.1l.14-6.2Z" transform="translate(169.79 59.34)"/><path class="cls-7" d="M19.29-31.13v-4.33a2.47,2.47,0,0,0-2.47-2.46H11.61v6.79Z" transform="translate(169.79 59.34)"/><rect class="cls-7" x="181.4" y="32.35" width="7.68" height="23.92"/></svg>